<svg width="199" height="90" viewBox="0 0 199 90" fill="none" xmlns="http://www.w3.org/2000/svg">
<path d="M42.4972 45.0014C42.4972 27.486 68.9539 14.4434 99.4934 14.4434C130.033 14.4434 156.503 27.486 156.503 45.0014C156.503 62.5222 130.033 75.5328 99.4934 75.5328C68.9539 75.5328 42.4972 62.5222 42.4972 45.0014Z" fill="white"/>
<path fill-rule="evenodd" clip-rule="evenodd" d="M99.4932 13C131.788 13 158 27.3389 158 45.0013C158 62.6664 131.788 77 99.4932 77C67.2117 77 41 62.6664 41 45.0013C41 27.3389 67.2117 13 99.4932 13ZM99.4932 15.8865C68.8448 15.8865 43.9532 28.9559 43.9532 45.0013C43.9532 61.0535 68.8448 74.0921 99.4932 74.0921C130.142 74.0921 155.033 61.0535 155.033 45.0013C155.033 28.9559 130.142 15.8865 99.4932 15.8865ZM89.2181 48.0736H77.7046C77.8406 50.8558 79.4329 52.1454 81.8146 52.1454C83.5838 52.1454 84.795 51.1672 85.1081 50.1823H88.8779C87.9116 53.5486 85.1081 55.1067 81.6513 55.1067C76.7519 55.1067 73.7034 51.7966 73.7034 47.0687C73.7034 42.489 76.9288 39.0012 81.6513 39.0012C86.9589 39.0012 89.5175 43.375 89.2181 48.0736ZM81.5424 41.885C79.1471 41.885 77.9223 43.4499 77.7318 45.4517H85.2033C84.9175 43.3149 84.0057 41.885 81.5424 41.885ZM139.069 48.0736H127.556C127.678 50.8558 129.284 52.1454 131.652 52.1454C133.435 52.1454 134.646 51.1672 134.959 50.1823H138.729C137.763 53.5486 134.959 55.1067 131.502 55.1067C126.589 55.1067 123.555 51.7966 123.555 47.0687C123.555 42.489 126.78 39.0012 131.502 39.0012C136.81 39.0012 139.369 43.375 139.069 48.0736ZM131.38 41.885C128.998 41.885 127.774 43.4499 127.569 45.4517H135.055C134.769 43.3149 133.857 41.885 131.38 41.885ZM53.5615 54.6925H57.8348V45.5907H67.062V54.6925H71.3353V33.5529H67.062V42.2084H57.8348V33.5529H53.5615V54.6925ZM91.5725 54.6925H95.6009V46.4286C95.6009 43.3256 96.7169 42.0547 99.0305 42.0547C101.017 42.0547 101.916 43.2962 101.916 45.8072V54.6925H105.93V45.2953C105.93 41.5135 104.787 39.0012 100.228 39.0012C98.4317 39.0012 96.5536 39.8297 95.4784 41.5429H95.3831V39.4154H91.5725V54.6925ZM109.36 54.6925H113.375V46.4192L119.308 54.6925H124.303L117.771 46.1199L123.555 39.4154H118.764L113.375 46.0023V33.5529H109.36V54.6925ZM141.424 54.6925H145.439V33.5529H141.424V54.6925Z" fill="#EC1B23"/>
</svg>
